<svg width="9" height="15" viewBox="0 0 9 15" fill="none" xmlns="http://www.w3.org/2000/svg">
<path d="M8.29028 1.95711C8.68081 1.56658 8.68081 0.933417 8.29028 0.542893C7.89976 0.152369 7.26659 0.152369 6.87607 0.542893L8.29028 1.95711ZM6.87607 14.4571C7.26659 14.8476 7.89976 14.8476 8.29028 14.4571C8.68081 14.0666 8.68081 13.4334 8.29028 13.0429L6.87607 14.4571ZM6.87607 0.542893L1.36264 6.05632L2.77685 7.47054L8.29028 1.95711L6.87607 0.542893ZM1.36264 8.94368L6.87607 14.4571L8.29028 13.0429L2.77685 7.52946L1.36264 8.94368ZM1.36264 6.05632C0.565318 6.85364 0.565318 8.14636 1.36264 8.94368L2.77685 7.52946C2.76058 7.51319 2.76058 7.48681 2.77685 7.47054L1.36264 6.05632Z" fill="white"/>
</svg>
