<svg width="24" height="24" viewBox="0 0 24 24" fill="none" xmlns="http://www.w3.org/2000/svg">
<path d="M3.73018 22.4549L3.27619 23.3459L3.73018 22.4549ZM1.5451 20.2698L2.4361 19.8158H2.4361L1.5451 20.2698ZM22.4552 20.2698L21.5642 19.8158V19.8158L22.4552 20.2698ZM20.2701 22.4549L19.8161 21.5639L20.2701 22.4549ZM20.2701 1.54483L19.8161 2.43584L20.2701 1.54483ZM22.4552 3.72991L23.3462 3.27592L22.4552 3.72991ZM3.73018 1.54483L4.18417 2.43584V2.43584L3.73018 1.54483ZM1.5451 3.72991L2.4361 4.1839L1.5451 3.72991ZM8.00369 2.00097C8.55597 1.999 9.00209 1.5497 9.00012 0.997417C8.99816 0.445136 8.54885 -0.000982881 7.99657 0.000982881L8.00369 2.00097ZM16.0037 0.000982881C15.4514 -0.000982881 15.0021 0.445136 15.0001 0.997417C14.9982 1.5497 15.4443 1.999 15.9966 2.00097L16.0037 0.000982881ZM2.00097 15.9156C1.99935 15.3633 1.55032 14.9169 0.998038 14.9186C0.445756 14.9202 -0.000641942 15.3692 0.000980854 15.9215L2.00097 15.9156ZM23.9993 15.9215C24.0009 15.3692 23.5545 14.9202 23.0022 14.9186C22.4499 14.9169 22.0009 15.3633 21.9993 15.9156L23.9993 15.9215ZM21.999 8.00342C22.001 8.55571 22.4503 9.00182 23.0026 8.99986C23.5549 8.99789 24.001 8.54859 23.999 7.99631L21.999 8.00342ZM7.99657 23.9987C8.54885 24.0007 8.99816 23.5546 9.00012 23.0023C9.00209 22.45 8.55597 22.0007 8.00369 21.9988L7.99657 23.9987ZM15.9967 21.9988C15.4444 22.0007 14.9983 22.45 15.0003 23.0023C15.0022 23.5546 15.4515 24.0007 16.0038 23.9987L15.9967 21.9988ZM0.00124651 7.99631C-0.000719309 8.54859 0.4454 8.99789 0.997681 8.99986C1.54996 9.00182 1.99927 8.55571 2.00123 8.00342L0.00124651 7.99631ZM14.3124 13.3125C13.7601 13.3125 13.3124 13.7602 13.3124 14.3125C13.3124 14.8648 13.7601 15.3125 14.3124 15.3125V13.3125ZM14.6874 15.3125C15.2397 15.3125 15.6874 14.8648 15.6874 14.3125C15.6874 13.7602 15.2397 13.3125 14.6874 13.3125V15.3125ZM14.3124 13.6875C13.7601 13.6875 13.3124 14.1352 13.3124 14.6875C13.3124 15.2398 13.7601 15.6875 14.3124 15.6875V13.6875ZM14.6874 15.6875C15.2397 15.6875 15.6874 15.2398 15.6874 14.6875C15.6874 14.1352 15.2397 13.6875 14.6874 13.6875V15.6875ZM14.3124 17.3125C13.7601 17.3125 13.3124 17.7602 13.3124 18.3125C13.3124 18.8648 13.7601 19.3125 14.3124 19.3125V17.3125ZM14.6874 19.3125C15.2397 19.3125 15.6874 18.8648 15.6874 18.3125C15.6874 17.7602 15.2397 17.3125 14.6874 17.3125V19.3125ZM14.3124 17.6875C13.7601 17.6875 13.3124 18.1352 13.3124 18.6875C13.3124 19.2398 13.7601 19.6875 14.3124 19.6875V17.6875ZM14.6874 19.6875C15.2397 19.6875 15.6874 19.2398 15.6874 18.6875C15.6874 18.1352 15.2397 17.6875 14.6874 17.6875V19.6875ZM18.3124 13.3125C17.7601 13.3125 17.3124 13.7602 17.3124 14.3125C17.3124 14.8648 17.7601 15.3125 18.3124 15.3125V13.3125ZM18.6874 15.3125C19.2397 15.3125 19.6874 14.8648 19.6874 14.3125C19.6874 13.7602 19.2397 13.3125 18.6874 13.3125V15.3125ZM18.3124 13.6875C17.7601 13.6875 17.3124 14.1352 17.3124 14.6875C17.3124 15.2398 17.7601 15.6875 18.3124 15.6875V13.6875ZM18.6874 15.6875C19.2397 15.6875 19.6874 15.2398 19.6874 14.6875C19.6874 14.1352 19.2397 13.6875 18.6874 13.6875V15.6875ZM18.3124 17.3125C17.7601 17.3125 17.3124 17.7602 17.3124 18.3125C17.3124 18.8648 17.7601 19.3125 18.3124 19.3125V17.3125ZM18.6874 19.3125C19.2397 19.3125 19.6874 18.8648 19.6874 18.3125C19.6874 17.7602 19.2397 17.3125 18.6874 17.3125V19.3125ZM18.3124 17.6875C17.7601 17.6875 17.3124 18.1352 17.3124 18.6875C17.3124 19.2398 17.7601 19.6875 18.3124 19.6875V17.6875ZM18.6874 19.6875C19.2397 19.6875 19.6874 19.2398 19.6874 18.6875C19.6874 18.1352 19.2397 17.6875 18.6874 17.6875V19.6875ZM7 6H8V4H7V6ZM9 7V8H11V7H9ZM8 9H7V11H8V9ZM6 8V7H4V8H6ZM7 9C6.44772 9 6 8.55228 6 8H4C4 9.65685 5.34315 11 7 11V9ZM9 8C9 8.55228 8.55228 9 8 9V11C9.65685 11 11 9.65685 11 8H9ZM8 6C8.55228 6 9 6.44772 9 7H11C11 5.34315 9.65685 4 8 4V6ZM7 4C5.34315 4 4 5.34315 4 7H6C6 6.44772 6.44772 6 7 6V4ZM7 15H8V13H7V15ZM9 16V17H11V16H9ZM8 18H7V20H8V18ZM6 17V16H4V17H6ZM7 18C6.44772 18 6 17.5523 6 17H4C4 18.6569 5.34315 20 7 20V18ZM9 17C9 17.5523 8.55228 18 8 18V20C9.65685 20 11 18.6569 11 17H9ZM8 15C8.55228 15 9 15.4477 9 16H11C11 14.3431 9.65685 13 8 13V15ZM7 13C5.34315 13 4 14.3431 4 16H6C6 15.4477 6.44772 15 7 15V13ZM16 6H17V4H16V6ZM18 7V8H20V7H18ZM17 9H16V11H17V9ZM15 8V7H13V8H15ZM16 9C15.4477 9 15 8.55228 15 8H13C13 9.65685 14.3431 11 16 11V9ZM18 8C18 8.55228 17.5523 9 17 9V11C18.6569 11 20 9.65685 20 8H18ZM17 6C17.5523 6 18 6.44772 18 7H20C20 5.34315 18.6569 4 17 4V6ZM16 4C14.3431 4 13 5.34315 13 7H15C15 6.44772 15.4477 6 16 6V4ZM4.18417 21.5639C3.43152 21.1804 2.8196 20.5685 2.4361 19.8158L0.654089 20.7238C1.22933 21.8528 2.14721 22.7707 3.27619 23.3459L4.18417 21.5639ZM21.5642 19.8158C21.1807 20.5685 20.5687 21.1804 19.8161 21.5639L20.7241 23.3459C21.853 22.7707 22.7709 21.8528 23.3462 20.7238L21.5642 19.8158ZM19.8161 2.43584C20.5687 2.81933 21.1807 3.43125 21.5642 4.1839L23.3462 3.27592C22.7709 2.14695 21.853 1.22907 20.7241 0.653826L19.8161 2.43584ZM3.27619 0.653826C2.14721 1.22907 1.22933 2.14695 0.65409 3.27592L2.4361 4.1839C2.8196 3.43125 3.43152 2.81933 4.18417 2.43584L3.27619 0.653826ZM7.99657 0.000982881C5.91006 0.0084098 4.46309 0.0490665 3.27619 0.653826L4.18417 2.43584C4.8651 2.08889 5.79006 2.00885 8.00369 2.00097L7.99657 0.000982881ZM15.9966 2.00097C18.2102 2.00885 19.1352 2.08889 19.8161 2.43584L20.7241 0.653826C19.5372 0.0490666 18.0902 0.0084098 16.0037 0.000982881L15.9966 2.00097ZM0.000980854 15.9215C0.00724941 18.0548 0.0425566 19.5236 0.65409 20.7238L2.4361 19.8158C2.084 19.1248 2.00764 18.1856 2.00097 15.9156L0.000980854 15.9215ZM21.9993 15.9156C21.9926 18.1856 21.9163 19.1248 21.5642 19.8158L23.3462 20.7238C23.9577 19.5236 23.993 18.0548 23.9993 15.9215L21.9993 15.9156ZM23.999 7.99631C23.9916 5.90979 23.9509 4.46283 23.3462 3.27592L21.5642 4.1839C21.9111 4.86483 21.9911 5.7898 21.999 8.00342L23.999 7.99631ZM8.00369 21.9988C5.79006 21.9909 4.8651 21.9108 4.18417 21.5639L3.27619 23.3459C4.46309 23.9507 5.91006 23.9913 7.99657 23.9987L8.00369 21.9988ZM16.0038 23.9987C18.0903 23.9913 19.5372 23.9507 20.7241 23.3459L19.8161 21.5639C19.1352 21.9108 18.2102 21.9909 15.9967 21.9988L16.0038 23.9987ZM2.00123 8.00342C2.00911 5.78979 2.08915 4.86483 2.4361 4.1839L0.65409 3.27592C0.0493302 4.46283 0.00867343 5.90979 0.00124651 7.99631L2.00123 8.00342ZM14 14.5C14 14.2239 14.2239 14 14.5 14V16C15.3284 16 16 15.3284 16 14.5H14ZM14.5 14C14.7761 14 15 14.2239 15 14.5H13C13 15.3284 13.6716 16 14.5 16V14ZM15 14.5C15 14.7761 14.7761 15 14.5 15V13C13.6716 13 13 13.6716 13 14.5H15ZM14.5 15C14.2239 15 14 14.7761 14 14.5H16C16 13.6716 15.3284 13 14.5 13V15ZM14.3124 15.3125H14.6874V13.3125H14.3124V15.3125ZM14.3124 15.6875H14.6874V13.6875H14.3124V15.6875ZM14 18.5C14 18.2239 14.2239 18 14.5 18V20C15.3284 20 16 19.3284 16 18.5H14ZM14.5 18C14.7761 18 15 18.2239 15 18.5H13C13 19.3284 13.6716 20 14.5 20V18ZM15 18.5C15 18.7761 14.7761 19 14.5 19V17C13.6716 17 13 17.6716 13 18.5H15ZM14.5 19C14.2239 19 14 18.7761 14 18.5H16C16 17.6716 15.3284 17 14.5 17V19ZM14.3124 19.3125H14.6874V17.3125H14.3124V19.3125ZM14.3124 19.6875H14.6874V17.6875H14.3124V19.6875ZM18 14.5C18 14.2239 18.2239 14 18.5 14V16C19.3284 16 20 15.3284 20 14.5H18ZM18.5 14C18.7761 14 19 14.2239 19 14.5H17C17 15.3284 17.6716 16 18.5 16V14ZM19 14.5C19 14.7761 18.7761 15 18.5 15V13C17.6716 13 17 13.6716 17 14.5H19ZM18.5 15C18.2239 15 18 14.7761 18 14.5H20C20 13.6716 19.3284 13 18.5 13V15ZM18.3124 15.3125H18.6874V13.3125H18.3124V15.3125ZM18.3124 15.6875H18.6874V13.6875H18.3124V15.6875ZM18 18.5C18 18.2239 18.2239 18 18.5 18V20C19.3284 20 20 19.3284 20 18.5H18ZM18.5 18C18.7761 18 19 18.2239 19 18.5H17C17 19.3284 17.6716 20 18.5 20V18ZM19 18.5C19 18.7761 18.7761 19 18.5 19V17C17.6716 17 17 17.6716 17 18.5H19ZM18.5 19C18.2239 19 18 18.7761 18 18.5H20C20 17.6716 19.3284 17 18.5 17V19ZM18.3124 19.3125H18.6874V17.3125H18.3124V19.3125ZM18.3124 19.6875H18.6874V17.6875H18.3124V19.6875Z" fill="white"/>
</svg>
